<svg xmlns="http://www.w3.org/2000/svg" style="display: none;">
    <symbol id="forest" viewBox="0 0 334 334">
        <title>forest</title>
        <path d="M284.2,249.2L237,192c6.8-0.4,14.8-4,20.4-8.4c2.4-2,4-4,5.6-6.4c1.6-2.8,2.4-5.6,2.4-8.4c0-3.2-1.2-6-3.2-8.8l-40-48 c5.2-0.8,11.2-3.2,15.6-6.8c2-1.6,3.6-3.2,4.4-5.2c1.2-2.4,2-4.8,2-7.2c0-2.8-0.8-5.2-2.8-7.6L171.4,2c-0.4-0.4-0.4-0.4-0.8-0.8 C169.4,0.4,168.2,0,167,0s-2.4,0.4-3.6,1.2C163,1.6,163,1.6,162.6,2l-70,83.2c-2,2.4-2.8,4.8-2.8,7.6c0,2.4,0.8,4.8,2,7.2 c0.8,2,2.4,3.6,4.4,5.2c4.4,3.6,10.4,6,15.6,6.8l-40,48c-2,2.8-3.2,5.6-3.2,8.8c0,2.8,0.8,5.6,2.4,8.4c1.6,2.4,3.2,4.4,5.6,6.4 c5.6,4.4,13.6,8,20.4,8.4l-47.2,57.2c-2.8,3.2-4,6.4-4,10c0,3.2,0.8,6.4,2.8,9.6c1.6,2.8,4,5.2,6.8,7.6c7.2,6,18,10.4,26.8,10.4 c8.4,0,15.6-2.8,21.6-7.6c2.8-2.4,4.8-4.8,6.8-7.6c2,2.8,4,5.6,6.8,7.6c5.6,4.8,13.2,7.6,21.2,7.6c2.4,0,4.4-0.4,6.8-1.2v34.8 c0,3.6,1.6,7.2,4,9.6c2.4,2.4,6,4,9.6,4h8h8c3.6,0,7.2-1.6,9.6-4c2.4-2.4,4-6,4-9.6v-34.8c2.4,0.8,4.4,1.2,6.8,1.2 c8,0,15.6-2.8,21.2-7.6c2.8-2,4.8-4.8,6.8-7.6c2,2.8,4,5.2,6.8,7.6c6,4.8,13.2,7.6,21.6,7.6c8.8,0,19.6-4.4,26.8-10.4 c2.8-2.4,5.2-4.8,6.8-7.6c2-3.2,2.8-6.4,2.8-9.6C288.2,255.6,287,252.4,284.2,249.2z M103.8,97.2c-0.8-0.8-1.6-1.6-2-2.4 c-0.4-0.4-0.4-0.8-0.4-1.2v-0.4L167,14.8l65.6,78.4v0.4c0,0.4,0,0.8-0.4,1.2c-0.4,0.8-1.2,1.6-2,2.4c-2.8,2.4-7.2,4.4-10.4,4.4 c-2.8,0-5.2-0.8-7.2-2.4s-3.6-4-4-6.8c-0.8-3.2-3.6-4.4-6.4-4.4c-3.2,0-5.2,2.4-5.6,4.4c0,0.8-3.2,9.2-11.2,9.2 c-11.2,0-10.4-11.2-18.4-11.2s-7.2,11.2-18.4,11.2c-8,0-11.2-8.4-11.2-9.2c-0.4-2-2.4-4.4-5.6-4.4c-2.8,0-5.6,1.2-6.4,4.4 c-0.4,2.8-2,5.2-4,6.8c-2,1.6-4.4,2.4-7.2,2.4C111,101.6,106.6,99.6,103.8,97.2z M83.4,174.4c-1.2-1.2-2.4-2.4-3.2-3.6 c-0.4-0.8-0.8-1.6-0.8-2.4s0.4-1.2,0.8-1.6l52-62.4c0.4,0.4,6,7.2,16.8,7.2c10.4,0,18-7.2,18-7.2s7.6,7.2,18,7.2 c10.8,0,16.4-6.8,16.8-7.2l52,62.4c0.4,0.4,0.8,0.8,0.8,1.6s-0.4,1.6-0.8,2.4c-0.8,1.2-2,2.4-3.2,3.6c-4,3.6-10,6-14.8,6 c-4,0-7.6-1.6-10.8-3.6c-1.6-1.2-2.8-2.8-3.6-4.4c-1.2-1.6-1.6-3.6-2-5.2c-0.8-3.2-4-4.8-6.8-4.8c-3.2,0-6,2.8-6.4,4.8 c-0.4,1.2-6,13.2-16.8,13.2c-10.4,0-16.4-11.2-16.4-11.2c-0.4-0.8-2.8-2.8-6-2.8s-5.6,2-6,2.8c0,0-6,11.2-16.4,11.2 c-10.8,0-16.4-12-16.8-13.2c-0.4-2-3.2-4.8-6.4-4.8c-2.8,0-6,1.6-6.8,4.8c-0.4,1.6-0.8,3.6-2,5.2c-0.8,1.6-2,3.2-3.6,4.4 c-3.2,2-6.8,3.6-10.8,3.6C93.4,180.4,87.4,178,83.4,174.4z M177,281.6v38.8c0,0.4,0,0.8-0.4,1.2c-0.4,0.4-0.8,0.4-1.2,0.4H167h-8.4 c-0.4,0-0.8,0-1.2-0.4c-0.4-0.4-0.4-0.8-0.4-1.2v-38.8v-0.4c5.2-2,10-6,10-6s4.8,4.4,10,6V281.6z M274.2,262.8 c-0.8,1.6-2.4,3.2-4.4,4.8c-5.6,4.4-13.2,7.6-19.6,7.6c-5.2,0-10.4-2-14-4.8c-4-3.2-6.8-7.6-8-12.8c-0.8-3.2-3.6-4.4-6.4-4.4 s-5.6,2.4-6,4.4c-1.2,5.2-4,9.6-8,12.8c-4,3.2-8.8,4.8-14,4.8c-14.4,0-20.8-12.8-21.2-14.4c-0.8-2.4-3.2-3.6-5.6-3.6 c-2.4,0-4.8,1.2-5.6,3.6c-0.4,1.6-4.4,14.4-21.2,14.4c-5.2,0-10-1.6-14-4.8c-4-3.2-6.8-7.6-8-12.8c-0.4-2-3.2-4.4-6-4.4 s-5.6,1.2-6.4,4.4c-1.2,5.2-4,9.6-8,12.8c-3.6,2.8-8.8,4.8-14,4.8c-6.4,0-14-3.2-19.6-7.6c-2-1.6-3.6-3.2-4.4-4.8 c-0.8-1.2-1.2-2.4-1.2-3.6c0-0.8,0.4-2,1.2-2.8l59.6-71.2c0.8-1.2,2-2,2.8-3.2c0.4-0.4,0.4-0.8,0.8-1.2 c1.2,1.6,10.8,11.2,22.4,11.2c11.6,0,20-8.8,21.6-10.8c1.6,2,10,10.8,21.6,10.8c11.6,0,21.2-9.6,22.4-11.2c0.4,0.4,0.4,0.8,0.8,1.2 c0.8,1.2,2,2,2.8,3.2l59.6,71.2c0.8,0.8,1.2,2,1.2,2.8C275.4,260.4,275,261.6,274.2,262.8z"/>
    </symbol>
    <symbol id="axe" viewBox="0 0 60.001 60.001">
        <title>axe</title>
        <path d="M52.397,0.264l-4.979-0.247c-4.85-0.248-9.141,2.233-11.889,4.351c-1.315,1.013-2.509,2.332-3.65,4.03 c-1.933,2.879-6.643,6.044-8.55,7.254l-0.788-1.206c-0.563-0.858-1.718-1.101-2.576-0.54l-6.903,4.51 c-0.417,0.272-0.702,0.69-0.804,1.177c-0.102,0.486-0.009,0.983,0.264,1.4l0.469,0.717l-2.464,1.61 c-0.355,0.232-0.599,0.588-0.686,1.003c-0.087,0.416-0.007,0.84,0.225,1.195l2.331,3.567c0.232,0.355,0.588,0.599,1.003,0.686 c0.11,0.023,0.22,0.034,0.33,0.034c0.305,0,0.604-0.088,0.865-0.259l2.092-1.367c0.821,1.866,1.466,3.81,1.927,5.82H15.5v11 c0,9.164-5.944,12.411-7.134,12.968c-0.018,0.008-0.03,0.023-0.047,0.032H4.5v2h3.518H42.21h4.29v-2h-3.771l-0.019-0.01 c-1.037-0.543-6.209-3.726-6.209-12.99v-11h-3.608c1.376-1.632,2.339-3.545,2.764-5.573l0.148-0.707l-0.783-0.456 C32.51,25.8,30.207,23.98,28.171,21.9c0.332-0.255,0.676-0.523,1.021-0.796c1.814-1.437,3.479-3.245,5.088-5.529 c3.626-5.146,10.391-8.032,12.378-8.794c0.4-0.154,0.819-0.221,1.246-0.2l4.168,0.208c0.883,0.036,1.704-0.256,2.352-0.843 c0.648-0.586,1.029-1.388,1.072-2.257C55.585,1.889,54.195,0.354,52.397,0.264z M15.818,26.359l-1.972,1.288l-1.88-2.877 l2.119-1.385l0.078,0.12c0.026,0.039,0.048,0.08,0.074,0.119C14.793,24.485,15.324,25.399,15.818,26.359z M20.665,33.981 c0.128,0.009,0.255,0.016,0.383,0.02H20.67C20.669,33.994,20.667,33.987,20.665,33.981z M39.389,58.001H34.5v-3c0-0.552-0.448-1-1-1 s-1,0.448-1,1v3h-3v-6c0-0.552-0.448-1-1-1s-1,0.448-1,1v6h-3v-2c0-0.552-0.448-1-1-1s-1,0.448-1,1v2h-3v-3c0-0.552-0.448-1-1-1 s-1,0.448-1,1v3h-5.565c2.462-2.064,5.565-6.045,5.565-13v-9h1.526H26.5v2c0,0.552,0.448,1,1,1s1-0.448,1-1v-2h2v3 c0,0.552,0.448,1,1,1c0.552,0,1-0.448,1-1v-3h2v9C34.5,51.983,37.226,55.951,39.389,58.001z M30.104,34.001h-8.405 c1.919-0.05,3.777-0.599,5.397-1.646c1.917-1.24,3.333-3.061,4.106-5.21c0.757,0.548,1.529,1.077,2.328,1.561 C32.959,30.708,31.764,32.559,30.104,34.001z M29.521,25.846c-0.559,2.01-1.786,3.712-3.511,4.828 c-1.725,1.116-3.787,1.543-5.865,1.244c-0.467-1.664-1.055-3.281-1.762-4.846l0.009-0.006l-0.149-0.308 c-0.374-0.808-0.784-1.599-1.221-2.377c-0.035-0.062-0.069-0.125-0.104-0.187c-0.344-0.603-0.699-1.2-1.081-1.784l-1.565-2.396 l6.671-4.358l0.677,1.036l0,0l0.889,1.36c0.302,0.462,0.623,0.918,0.953,1.371c0.128,0.177,0.26,0.351,0.392,0.526 c0.197,0.259,0.398,0.516,0.603,0.772c0.17,0.213,0.339,0.426,0.515,0.635c0.22,0.262,0.449,0.518,0.678,0.775 c0.176,0.197,0.347,0.397,0.527,0.59l0.358,0.392l0.015-0.011C27.486,24.074,28.479,24.99,29.521,25.846z M53.082,4.462 c-0.252,0.228-0.579,0.345-0.91,0.328l-4.168-0.207c-0.701-0.035-1.399,0.076-2.062,0.33c-2.718,1.042-9.453,4.055-13.297,9.509 c-1.498,2.125-3.033,3.798-4.694,5.113c-0.387,0.306-0.773,0.607-1.141,0.888c-0.031-0.036-0.064-0.071-0.095-0.108 c-0.308-0.358-0.601-0.724-0.89-1.091c-0.123-0.156-0.249-0.31-0.369-0.469c-0.233-0.307-0.451-0.619-0.671-0.931 c-0.117-0.167-0.235-0.333-0.349-0.502c2.078-1.318,6.963-4.619,9.104-7.809c1.019-1.517,2.069-2.681,3.21-3.561 C39.232,4.04,43.088,1.8,47.319,2.014l4.979,0.247c0.697,0.035,1.236,0.63,1.201,1.328C53.482,3.924,53.334,4.234,53.082,4.462z"/>
    </symbol>
    <symbol id="truck" viewBox="0 0 512 512">
        <title>truck</title>
        <g>
            <g>
                <path d="M509.14,261.159c0.203-0.198,0.332-0.318,0.332-0.318l-75.734-86.458c0,0-0.185,0.08-0.496,0.206 c-1.871-2.251-4.691-3.685-7.846-3.685h-65.199v-61.178c0-5.632-4.566-10.199-10.199-10.199H29.3 c-5.633,0-10.199,4.567-10.199,10.199v224.04h-8.902C4.566,333.766,0,338.333,0,343.965s4.566,10.199,10.199,10.199h8.902v11.919 c0,5.632,4.566,10.199,10.199,10.199h20.099c4.661,20.687,23.172,36.191,45.247,36.191c22.075,0,40.586-15.504,45.248-36.191 h239.251v-0.001c4.661,20.687,23.172,36.191,45.247,36.191c22.075,0,40.586-15.504,45.248-36.191h32.162 c5.633,0,10.199-4.567,10.199-10.199v-97.851C512,265.482,510.908,262.993,509.14,261.159z M94.646,392.074 c-14.332,0-25.992-11.661-25.992-25.992c0-14.331,11.66-25.992,25.992-25.992c14.332,0,25.993,11.661,25.993,25.992 C120.638,380.413,108.979,392.074,94.646,392.074z M339.799,355.882H139.893c-4.661-20.687-23.172-36.191-45.248-36.191 c-22.075,0-40.586,15.504-45.247,36.191h-9.899v-44.947h300.299V355.882z M339.799,290.537H39.499V119.924h300.299V290.537z M435.596,207.46l44.299,50.572h-44.299V207.46z M424.391,392.074c-14.332,0-25.992-11.661-25.992-25.992 c0-14.331,11.66-25.992,25.992-25.992c14.332,0,25.993,11.661,25.993,25.992C450.384,380.413,438.723,392.074,424.391,392.074z M491.602,355.882h-21.963c-4.661-20.687-23.172-36.191-45.248-36.191c-22.075,0-40.586,15.504-45.247,36.191h-18.947V191.301h55 v76.929c0,5.632,4.566,10.199,10.199,10.199h66.205V355.882z"/>
            </g>
        </g>
        <g>
            <g>
                <path d="M315.155,259.059h-85.673c-5.633,0-10.199,4.567-10.199,10.199s4.566,10.199,10.199,10.199h85.673 c5.633,0,10.199-4.567,10.199-10.199S320.788,259.059,315.155,259.059z"/>
            </g>
        </g>
        <g>
            <g>
                <path d="M197.865,259.059h-6.12c-5.633,0-10.199,4.567-10.199,10.199s4.566,10.199,10.199,10.199h6.12 c5.633,0,10.199-4.567,10.199-10.199S203.498,259.059,197.865,259.059z"/>
            </g>
        </g>
    </symbol>
</svg>